<svg width="20" height="20" viewBox="0 0 20 20" fill="none" xmlns="http://www.w3.org/2000/svg">
<path d="M2.99995 0.199951C1.45355 0.199951 0.199951 1.45355 0.199951 2.99995V5.79995C0.199951 7.34635 1.45355 8.59995 2.99995 8.59995H5.79995C7.34635 8.59995 8.59995 7.34635 8.59995 5.79995V2.99995C8.59995 1.45355 7.34635 0.199951 5.79995 0.199951H2.99995Z" fill="black"/>
<path d="M2.99995 11.4C1.45355 11.4 0.199951 12.6536 0.199951 14.2V17C0.199951 18.5463 1.45355 19.8 2.99995 19.8H5.79995C7.34635 19.8 8.59995 18.5463 8.59995 17V14.2C8.59995 12.6536 7.34635 11.4 5.79995 11.4H2.99995Z" fill="black"/>
<path d="M11.4 2.99995C11.4 1.45355 12.6536 0.199951 14.2 0.199951H17C18.5463 0.199951 19.8 1.45355 19.8 2.99995V5.79995C19.8 7.34635 18.5463 8.59995 17 8.59995H14.2C12.6536 8.59995 11.4 7.34635 11.4 5.79995V2.99995Z" fill="black"/>
<path d="M11.4 14.2C11.4 12.6536 12.6536 11.4 14.2 11.4H17C18.5463 11.4 19.8 12.6536 19.8 14.2V17C19.8 18.5463 18.5463 19.8 17 19.8H14.2C12.6536 19.8 11.4 18.5463 11.4 17V14.2Z" fill="black"/>
</svg>
