<svg width="24" height="24" viewBox="0 0 24 24" fill="none" xmlns="http://www.w3.org/2000/svg">
<path fill-rule="evenodd" clip-rule="evenodd" d="M2.66683 3.83331C2.66683 1.90032 4.23383 0.333313 6.16683 0.333313H17.8335C19.7665 0.333313 21.3335 1.90032 21.3335 3.83331V21.3333L22.5001 21.3333C23.1445 21.3333 23.6668 21.8556 23.6668 22.4999C23.6668 23.1443 23.1445 23.6666 22.5002 23.6666H1.50015C0.855815 23.6666 0.333487 23.1443 0.333496 22.4999C0.333505 21.8556 0.855846 21.3333 1.50018 21.3333L2.66683 21.3333V3.83331ZM5.00016 21.3333H8.50016V16.6666C8.50016 15.378 9.54483 14.3333 10.8335 14.3333H13.1668C14.4555 14.3333 15.5002 15.378 15.5002 16.6666V21.3333H19.0002V3.83331C19.0002 3.18898 18.4778 2.66665 17.8335 2.66665H6.16683C5.5225 2.66665 5.00016 3.18898 5.00016 3.83331V21.3333ZM13.1668 21.3333V16.6666H10.8335V21.3333H13.1668ZM7.3335 6.16662C7.3335 5.52229 7.85583 4.99995 8.50016 4.99995H9.66683C10.3112 4.99995 10.8335 5.52229 10.8335 6.16662C10.8335 6.81095 10.3112 7.33329 9.66683 7.33329H8.50016C7.85583 7.33329 7.3335 6.81095 7.3335 6.16662ZM13.1668 6.16662C13.1668 5.52229 13.6892 4.99995 14.3335 4.99995H15.5002C16.1445 4.99995 16.6668 5.52229 16.6668 6.16662C16.6668 6.81095 16.1445 7.33329 15.5002 7.33329H14.3335C13.6892 7.33329 13.1668 6.81095 13.1668 6.16662ZM7.3335 10.8333C7.3335 10.189 7.85583 9.66662 8.50016 9.66662H9.66683C10.3112 9.66662 10.8335 10.189 10.8335 10.8333C10.8335 11.4776 10.3112 12 9.66683 12H8.50016C7.85583 12 7.3335 11.4776 7.3335 10.8333ZM13.1668 10.8333C13.1668 10.189 13.6892 9.66662 14.3335 9.66662H15.5002C16.1445 9.66662 16.6668 10.189 16.6668 10.8333C16.6668 11.4776 16.1445 12 15.5002 12H14.3335C13.6892 12 13.1668 11.4776 13.1668 10.8333Z" fill="#18181B"/>
</svg>
