<svg width="100" height="29" viewBox="0 0 100 29" fill="none" xmlns="http://www.w3.org/2000/svg">
<path d="M15.9526 15.4817C15.6966 17.7019 14.8872 19.4145 13.5266 20.6206C12.1649 21.8267 10.3555 22.4303 8.09723 22.4303C5.64943 22.4303 3.68749 21.5409 2.21249 19.7632C0.737492 17.9855 0 15.6064 0 12.6281V10.6099C0 8.65893 0.344235 6.94414 1.03162 5.46328C1.71901 3.98353 2.69399 2.84695 3.95656 2.05356C5.21804 1.26126 6.67888 0.864014 8.34016 0.864014C10.5407 0.864014 12.3054 1.48637 13.6345 2.73109C14.9624 3.9758 15.7358 5.69832 15.9537 7.89864H13.2074C12.97 6.22137 12.4558 5.00644 11.6638 4.25498C10.8718 3.50352 9.76395 3.12723 8.34125 3.12723C6.595 3.12723 5.22676 3.78159 4.23544 5.08921C3.24412 6.39682 2.74846 8.25837 2.74846 10.6728V12.7076C2.74846 14.9873 3.21797 16.8003 4.157 18.1466C5.09603 19.4928 6.40981 20.1659 8.09941 20.1659C9.61689 20.1659 10.7814 19.8172 11.593 19.1209C12.4046 18.4247 12.9427 17.2108 13.2085 15.4806H15.9548L15.9526 15.4817Z" fill="black"/>
<path d="M27.0262 22.1423C26.8747 21.8344 26.7505 21.2871 26.6558 20.4992C25.4324 21.787 23.9705 22.4314 22.2722 22.4314C20.7536 22.4314 19.5085 21.9966 18.5368 21.1271C17.564 20.2575 17.0781 19.1541 17.0781 17.8189C17.0781 16.1946 17.6882 14.9333 18.9072 14.0351C20.1261 13.1368 21.8408 12.6877 24.0511 12.6877H26.6122V11.4629C26.6122 10.5304 26.3366 9.78891 25.7865 9.23607C25.2363 8.68323 24.4248 8.40737 23.3528 8.40737C22.4138 8.40737 21.6262 8.64792 20.99 9.12793C20.3538 9.60905 20.0368 10.1895 20.0368 10.8725H17.3897C17.3897 10.0946 17.662 9.34201 18.2078 8.61702C18.7536 7.89204 19.4932 7.31714 20.4279 6.89451C21.3626 6.47188 22.3898 6.26001 23.5086 6.26001C25.2821 6.26001 26.6721 6.70912 27.6787 7.60735C28.6842 8.50557 29.206 9.74367 29.2441 11.3194V18.4986C29.2441 19.9309 29.4238 21.0697 29.7844 21.915V22.1456H27.024L27.0262 22.1423ZM22.6567 20.1097C23.4825 20.1097 24.2646 19.8934 25.0054 19.4608C25.7451 19.0283 26.281 18.4666 26.6133 17.7747V14.5747H24.55C21.3244 14.5747 19.7111 15.5314 19.7111 17.4437C19.7111 18.2801 19.9856 18.9334 20.5368 19.4046C21.087 19.8757 21.794 20.1108 22.6567 20.1108V20.1097Z" fill="black"/>
<path d="M39.4239 18.0043C39.4239 17.2837 39.1559 16.7243 38.6199 16.3248C38.0839 15.9264 37.1493 15.5822 35.8159 15.2942C34.4825 15.0061 33.4247 14.6597 32.6426 14.2558C31.8604 13.8519 31.2809 13.3719 30.9061 12.8147C30.5314 12.2574 30.344 11.5942 30.344 10.8251C30.344 9.54727 30.8778 8.46587 31.9454 7.58199C33.013 6.69811 34.3768 6.25562 36.037 6.25562C37.7822 6.25562 39.1983 6.71245 40.2844 7.62502C41.3705 8.5387 41.9141 9.70617 41.9141 11.1274H39.267C39.267 10.3969 38.9609 9.76797 38.3486 9.2394C37.7364 8.71084 36.9662 8.44601 36.0359 8.44601C35.1056 8.44601 34.3278 8.65787 33.7875 9.0805C33.2472 9.50313 32.9759 10.056 32.9759 10.7379C32.9759 11.3823 33.2276 11.8668 33.7298 12.1934C34.2331 12.52 35.1405 12.8323 36.4553 13.1302C37.7691 13.4282 38.8345 13.7835 39.6504 14.1973C40.4664 14.6111 41.071 15.1077 41.4653 15.6892C41.8586 16.2707 42.0557 16.9792 42.0557 17.8156C42.0557 19.2093 41.5056 20.326 40.4054 21.1668C39.3051 22.0077 37.877 22.4281 36.122 22.4281C34.8888 22.4281 33.7973 22.2063 32.8485 21.7649C31.8996 21.3235 31.1578 20.7056 30.6218 19.9122C30.0859 19.1199 29.8179 18.2614 29.8179 17.3389H32.4509C32.4977 18.2327 32.8517 18.9411 33.5108 19.4653C34.1699 19.9894 35.0403 20.2509 36.122 20.2509C37.1177 20.2509 37.9173 20.0468 38.5197 19.6385C39.1221 19.2302 39.4239 18.6851 39.4239 18.0021V18.0043Z" fill="black"/>
<path d="M45.7879 8.43273C46.9546 6.98166 48.4732 6.25558 50.3414 6.25558C53.5953 6.25558 55.237 8.11493 55.2653 11.8347V22.1412H52.6323V11.8204C52.6225 10.6959 52.3687 9.86504 51.8709 9.32654C51.373 8.78805 50.5974 8.5188 49.544 8.5188C48.6899 8.5188 47.9404 8.74943 47.2955 9.21068C46.6506 9.67193 46.1474 10.2777 45.7868 11.027V22.1412H43.1538V0H45.7868V8.43273H45.7879Z" fill="black"/>
<path d="M68.147 16.6493H59.4659L57.5159 22.1412H54.6978L62.6098 1.1521H65.0009L72.9271 22.1412H70.1231L68.1448 16.6493H68.147ZM60.2916 14.386H67.3354L63.8059 4.56955L60.2905 14.386H60.2916Z" fill="black"/>
<path d="M86.5637 14.5161C86.5637 16.8896 86.0278 18.802 84.9558 20.253C83.8839 21.7041 82.4318 22.4302 80.6006 22.4302C78.7694 22.4302 77.2606 21.8299 76.1887 20.6282V28.1384H73.5557V6.5446H75.961L76.0884 8.27484C77.1604 6.92971 78.6495 6.25659 80.557 6.25659C82.4645 6.25659 83.8708 6.96281 84.9471 8.37526C86.0234 9.7877 86.5626 11.753 86.5626 14.2711V14.5161H86.5637ZM83.9308 14.2137C83.9308 12.4548 83.5604 11.0666 82.8207 10.0481C82.081 9.02961 81.0657 8.51981 79.7748 8.51981C78.1811 8.51981 76.9861 9.23596 76.1887 10.6683V18.1211C76.9763 19.5435 78.1811 20.2541 79.8032 20.2541C81.0646 20.2541 82.0679 19.7476 82.8131 18.7335C83.5571 17.7195 83.9297 16.2132 83.9297 14.2148L83.9308 14.2137Z" fill="black"/>
<path d="M100 14.5161C100 16.8896 99.4643 18.802 98.3924 20.253C97.3204 21.7041 95.8683 22.4302 94.0371 22.4302C92.2059 22.4302 90.6971 21.8299 89.6252 20.6282V28.1384H86.9922V6.5446H89.3975L89.525 8.27484C90.5969 6.92971 92.086 6.25659 93.9935 6.25659C95.901 6.25659 97.3074 6.96281 98.3836 8.37526C99.4599 9.7877 99.9992 11.753 99.9992 14.2711V14.5161H100ZM97.3673 14.2137C97.3673 12.4548 96.9969 11.0666 96.2572 10.0481C95.5175 9.02961 94.5022 8.51981 93.2114 8.51981C91.6176 8.51981 90.4226 9.23596 89.6252 10.6683V18.1211C90.4128 19.5435 91.6176 20.2541 93.2397 20.2541C94.5012 20.2541 95.5044 19.7476 96.2496 18.7335C96.9936 17.7195 97.3662 16.2132 97.3662 14.2148L97.3673 14.2137Z" fill="black"/>
<path d="M70.3803 25.4714H0V28.1385H70.3803V25.4714Z" fill="#ADEE9F"/>
</svg>
