<svg width="17" height="16" viewBox="0 0 17 16" fill="none" xmlns="http://www.w3.org/2000/svg">
<path fill-rule="evenodd" clip-rule="evenodd" d="M8.50005 0.300049C9.10756 0.300049 9.60005 0.792536 9.60005 1.40005V6.90005H15.1C15.7076 6.90005 16.2 7.39254 16.2 8.00005C16.2 8.60756 15.7076 9.10005 15.1 9.10005H9.60005V14.6C9.60005 15.2076 9.10756 15.7 8.50005 15.7C7.89254 15.7 7.40005 15.2076 7.40005 14.6V9.10005H1.90005C1.29254 9.10005 0.800049 8.60756 0.800049 8.00005C0.800049 7.39254 1.29254 6.90005 1.90005 6.90005L7.40005 6.90005V1.40005C7.40005 0.792536 7.89254 0.300049 8.50005 0.300049Z" fill="black"/>
</svg>
