<svg width="21" height="20" viewBox="0 0 21 20" fill="none" xmlns="http://www.w3.org/2000/svg">
<path fill-rule="evenodd" clip-rule="evenodd" d="M10.25 2C5.83172 2 2.25 5.58172 2.25 10C2.25 11.6797 2.76765 13.2385 3.65212 14.5255C5.64411 13.5484 7.8842 13 10.25 13C12.6158 13 14.8559 13.5484 16.8479 14.5255C17.7323 13.2384 18.25 11.6797 18.25 10C18.25 5.58172 14.6683 2 10.25 2ZM17.9042 16.4356C19.3681 14.6964 20.25 12.4512 20.25 10C20.25 4.47715 15.7728 0 10.25 0C4.72715 0 0.25 4.47715 0.25 10C0.25 12.4512 1.13193 14.6964 2.59577 16.4356C2.60369 16.4454 2.61176 16.4549 2.61998 16.4643C4.45429 18.6272 7.19183 20 10.25 20C13.3082 20 16.0457 18.6272 17.88 16.4643C17.8882 16.4549 17.8963 16.4454 17.9042 16.4356ZM15.4486 16.0808C13.8574 15.3858 12.0997 15 10.25 15C8.40029 15 6.64259 15.3858 5.05137 16.0808C6.4496 17.2774 8.26541 18 10.25 18C12.2346 18 14.0504 17.2774 15.4486 16.0808ZM10.25 6C9.14543 6 8.25 6.89543 8.25 8C8.25 9.10457 9.14543 10 10.25 10C11.3546 10 12.25 9.10457 12.25 8C12.25 6.89543 11.3546 6 10.25 6ZM6.25 8C6.25 5.79086 8.04086 4 10.25 4C12.4591 4 14.25 5.79086 14.25 8C14.25 10.2091 12.4591 12 10.25 12C8.04086 12 6.25 10.2091 6.25 8Z" fill="#71717A"/>
</svg>
