<svg width="24" height="22" viewBox="0 0 24 22" fill="none" xmlns="http://www.w3.org/2000/svg">
<path fill-rule="evenodd" clip-rule="evenodd" d="M12.0002 0.5C12.6445 0.5 13.1668 1.02233 13.1668 1.66667L13.1668 10.5168L14.6752 9.00838C15.1308 8.55276 15.8695 8.55276 16.3251 9.00838C16.7807 9.46399 16.7807 10.2027 16.3251 10.6583L12.8251 14.1583C12.3695 14.6139 11.6308 14.6139 11.1752 14.1583L7.6752 10.6583C7.21959 10.2027 7.21959 9.46399 7.6752 9.00838C8.13082 8.55276 8.86951 8.55276 9.32512 9.00838L10.8335 10.5168L10.8335 1.66667C10.8335 1.02233 11.3558 0.5 12.0002 0.5ZM0.333496 7.5C0.333496 5.567 1.9005 4 3.8335 4H7.3335C7.97783 4 8.50016 4.52233 8.50016 5.16667C8.50016 5.811 7.97783 6.33333 7.3335 6.33333H3.8335C3.18916 6.33333 2.66683 6.85567 2.66683 7.5V18C2.66683 18.6443 3.18916 19.1667 3.8335 19.1667H20.1668C20.8112 19.1667 21.3335 18.6443 21.3335 18V7.5C21.3335 6.85567 20.8112 6.33333 20.1668 6.33333H16.6668C16.0225 6.33333 15.5002 5.811 15.5002 5.16667C15.5002 4.52233 16.0225 4 16.6668 4H20.1668C22.0998 4 23.6668 5.567 23.6668 7.5V18C23.6668 19.933 22.0998 21.5 20.1668 21.5H3.8335C1.9005 21.5 0.333496 19.933 0.333496 18V7.5Z" fill="#18181B"/>
</svg>
