<svg width="12" height="11" viewBox="0 0 12 11" fill="none" xmlns="http://www.w3.org/2000/svg">
<path d="M2.50002 6.89998C2.50002 7.28658 2.81342 7.59998 3.20002 7.59998C3.58662 7.59998 3.90002 7.28658 3.90002 6.89998L3.90002 2.98993L4.80505 3.89495C5.07842 4.16832 5.52163 4.16832 5.795 3.89495C6.06837 3.62158 6.06837 3.17837 5.795 2.905L3.695 0.805001C3.56372 0.673725 3.38568 0.599976 3.20002 0.599976C3.01437 0.599976 2.83633 0.673725 2.70505 0.805001L0.60505 2.905C0.331683 3.17837 0.331683 3.62158 0.60505 3.89495C0.878416 4.16832 1.32163 4.16832 1.595 3.89495L2.50002 2.98993L2.50002 6.89998Z" fill="white"/>
<path d="M9.50002 4.09998C9.50002 3.71338 9.18662 3.39998 8.80002 3.39998C8.41342 3.39998 8.10002 3.71338 8.10002 4.09998L8.10002 8.01003L7.195 7.105C6.92163 6.83163 6.47842 6.83163 6.20505 7.105C5.93168 7.37837 5.93168 7.82158 6.20505 8.09495L8.30505 10.195C8.43632 10.3262 8.61437 10.4 8.80002 10.4C8.98567 10.4 9.16372 10.3262 9.295 10.195L11.395 8.09495C11.6684 7.82159 11.6684 7.37837 11.395 7.105C11.1216 6.83163 10.6784 6.83163 10.405 7.105L9.50002 8.01003V4.09998Z" fill="white"/>
</svg>
