<svg width="12" height="12" viewBox="0 0 12 12" fill="none" xmlns="http://www.w3.org/2000/svg">
<path fill-rule="evenodd" clip-rule="evenodd" d="M6.00002 11.6C9.09282 11.6 11.6 9.09282 11.6 6.00002C11.6 2.90723 9.09282 0.400024 6.00002 0.400024C2.90723 0.400024 0.400024 2.90723 0.400024 6.00002C0.400024 9.09282 2.90723 11.6 6.00002 11.6ZM8.595 5.095C8.86837 4.82163 8.86837 4.37842 8.595 4.10505C8.32163 3.83168 7.87842 3.83168 7.60505 4.10505L5.30002 6.41007L4.395 5.50505C4.12163 5.23168 3.67842 5.23168 3.40505 5.50505C3.13168 5.77842 3.13168 6.22163 3.40505 6.495L4.80505 7.895C5.07842 8.16837 5.52163 8.16837 5.795 7.895L8.595 5.095Z" fill="#22C55E"/>
</svg>
