<svg width="16" height="16" viewBox="0 0 16 16" fill="none" xmlns="http://www.w3.org/2000/svg">
<path fill-rule="evenodd" clip-rule="evenodd" d="M13.4205 2.3295C12.9811 1.89017 12.2688 1.89017 11.8295 2.3295L11.2348 2.92417L12.8258 4.51516L13.4205 3.9205C13.8598 3.48116 13.8598 2.76884 13.4205 2.3295ZM11.7651 5.57582L10.1741 3.98483L1.75 12.409V14.0266H3.31434L11.7651 5.57582ZM10.7688 1.26884C11.7939 0.243718 13.456 0.243718 14.4811 1.26884C15.5062 2.29397 15.5062 3.95603 14.4811 4.98116L4.15533 15.3069C4.01468 15.4476 3.82391 15.5266 3.625 15.5266H1C0.585786 15.5266 0.25 15.1908 0.25 14.7766V12.0983C0.25 11.8994 0.329018 11.7086 0.46967 11.568L10.7688 1.26884Z" fill="black"/>
</svg>
