<svg width="16" height="16" viewBox="0 0 16 16" fill="none" xmlns="http://www.w3.org/2000/svg">
<path fill-rule="evenodd" clip-rule="evenodd" d="M6.26464 2.06104C6.76994 -0.02035 9.73007 -0.0203466 10.2354 2.06105C10.3221 2.41842 10.7316 2.58802 11.0456 2.39666C12.8747 1.28219 14.9678 3.37532 13.8533 5.20439C13.662 5.51844 13.8316 5.92788 14.189 6.01464C16.2703 6.51994 16.2703 9.48006 14.189 9.98536C13.8316 10.0721 13.662 10.4816 13.8533 10.7956C14.9678 12.6247 12.8747 14.7178 11.0456 13.6033C10.7316 13.412 10.3221 13.5816 10.2354 13.939C9.73007 16.0203 6.76994 16.0203 6.26464 13.939C6.17788 13.5816 5.76844 13.412 5.45439 13.6033C3.62532 14.7178 1.53219 12.6247 2.64666 10.7956C2.83802 10.4816 2.66842 10.0721 2.31105 9.98536C0.229653 9.48006 0.22965 6.51994 2.31104 6.01464C2.66842 5.92788 2.83802 5.51844 2.64666 5.20439C1.53219 3.37532 3.62532 1.28219 5.45439 2.39666C5.76844 2.58802 6.17788 2.41842 6.26464 2.06104ZM8.7777 2.41492C8.6434 1.86169 7.85661 1.86169 7.7223 2.41492C7.39589 3.75947 5.85544 4.39754 4.67389 3.67761C4.18773 3.38139 3.63139 3.93773 3.92761 4.42389C4.64754 5.60544 4.00947 7.14589 2.66492 7.4723C2.11169 7.60661 2.11169 8.39339 2.66492 8.5277C4.00947 8.85412 4.64755 10.3946 3.92761 11.5761C3.63139 12.0623 4.18773 12.6186 4.67389 12.3224C5.85545 11.6025 7.39589 12.2405 7.7223 13.5851C7.85661 14.1383 8.6434 14.1383 8.7777 13.5851C9.10412 12.2405 10.6446 11.6025 11.8261 12.3224C12.3123 12.6186 12.8686 12.0623 12.5724 11.5761C11.8525 10.3946 12.4905 8.85412 13.8351 8.5277C14.3883 8.39339 14.3883 7.60661 13.8351 7.4723C12.4905 7.14588 11.8525 5.60544 12.5724 4.42389C12.8686 3.93773 12.3123 3.38139 11.8261 3.67761C10.6446 4.39754 9.10412 3.75947 8.7777 2.41492ZM8.25 6.5C7.42157 6.5 6.75 7.17157 6.75 8C6.75 8.82843 7.42157 9.5 8.25 9.5C9.07843 9.5 9.75 8.82843 9.75 8C9.75 7.17157 9.07843 6.5 8.25 6.5ZM5.25 8C5.25 6.34315 6.59315 5 8.25 5C9.90685 5 11.25 6.34315 11.25 8C11.25 9.65685 9.90685 11 8.25 11C6.59315 11 5.25 9.65685 5.25 8Z" fill="black"/>
</svg>
