<svg width="18" height="20" viewBox="0 0 18 20" fill="none" xmlns="http://www.w3.org/2000/svg">
<path d="M6.59998 4.00002C5.93724 4.00002 5.39998 4.53728 5.39998 5.20002C5.39998 5.86276 5.93724 6.40002 6.59998 6.40002L13.3029 6.40002L11.7514 7.9515C11.2828 8.42013 11.2828 9.17992 11.7514 9.64855C12.2201 10.1172 12.9799 10.1172 13.4485 9.64855L17.0485 6.04855C17.2735 5.82351 17.4 5.51829 17.4 5.20003C17.4 4.88177 17.2735 4.57654 17.0485 4.3515L13.4485 0.751496C12.9799 0.282867 12.2201 0.282867 11.7514 0.751496C11.2828 1.22012 11.2828 1.97992 11.7514 2.44855L13.3029 4.00002L6.59998 4.00002Z" fill="#52525B"/>
<path d="M11.4 16C12.0627 16 12.6 15.4628 12.6 14.8C12.6 14.1373 12.0627 13.6 11.4 13.6L4.69703 13.6L6.2485 12.0486C6.71713 11.5799 6.71713 10.8201 6.2485 10.3515C5.77988 9.88287 5.02008 9.88287 4.55145 10.3515L0.951447 13.9515C0.726403 14.1765 0.599976 14.4818 0.599976 14.8C0.599976 15.1183 0.726403 15.4235 0.951447 15.6486L4.55145 19.2486C5.02007 19.7172 5.77987 19.7172 6.2485 19.2486C6.71713 18.7799 6.71713 18.0201 6.2485 17.5515L4.69703 16L11.4 16Z" fill="#52525B"/>
</svg>
