<svg width="16" height="20" viewBox="0 0 16 20" fill="none" xmlns="http://www.w3.org/2000/svg">
<path fill-rule="evenodd" clip-rule="evenodd" d="M0.799988 2.80002C0.799988 1.47454 1.8745 0.400024 3.19999 0.400024H8.70293C9.33945 0.400024 9.9499 0.652881 10.4 1.10297L14.497 5.20002C14.9471 5.65011 15.2 6.26056 15.2 6.89708V17.2C15.2 18.5255 14.1255 19.6 12.8 19.6H3.19999C1.8745 19.6 0.799988 18.5255 0.799988 17.2V2.80002ZM3.19999 10C3.19999 9.33728 3.73725 8.80002 4.39999 8.80002H11.6C12.2627 8.80002 12.8 9.33728 12.8 10C12.8 10.6628 12.2627 11.2 11.6 11.2H4.39999C3.73725 11.2 3.19999 10.6628 3.19999 10ZM4.39999 13.6C3.73725 13.6 3.19999 14.1373 3.19999 14.8C3.19999 15.4628 3.73725 16 4.39999 16H11.6C12.2627 16 12.8 15.4628 12.8 14.8C12.8 14.1373 12.2627 13.6 11.6 13.6H4.39999Z" fill="black"/>
</svg>
