<svg width="21" height="20" viewBox="0 0 21 20" fill="none" xmlns="http://www.w3.org/2000/svg">
<path d="M0.900024 1.60002C0.900024 0.937283 1.43728 0.400024 2.10002 0.400024H4.68347C5.27008 0.400024 5.77071 0.82412 5.86714 1.40275L6.75432 6.72579C6.84093 7.24543 6.57849 7.76079 6.1073 7.99639L4.24954 8.92527C5.58909 12.254 8.24604 14.911 11.5748 16.2505L12.5037 14.3927C12.7393 13.9216 13.2546 13.6591 13.7743 13.7457L19.0973 14.6329C19.6759 14.7293 20.1 15.23 20.1 15.8166V18.4C20.1 19.0628 19.5628 19.6 18.9 19.6H16.5C7.88438 19.6 0.900024 12.6157 0.900024 4.00002V1.60002Z" fill="black"/>
</svg>
