<svg width="20" height="18" viewBox="0 0 20 18" fill="none" xmlns="http://www.w3.org/2000/svg">
<path d="M7.24855 9.35145C6.77992 8.88282 6.02012 8.88282 5.5515 9.35145C5.08287 9.82008 5.08287 10.5799 5.5515 11.0485L9.1515 14.6485C9.62013 15.1171 10.3799 15.1171 10.8486 14.6485L14.4486 11.0485C14.9172 10.5799 14.9172 9.82008 14.4486 9.35145C13.9799 8.88282 13.2201 8.88282 12.7515 9.35145L11.2 10.9029L11.2 4.19998H17.2C18.5255 4.19998 19.6 5.27449 19.6 6.59998V15C19.6 16.3255 18.5255 17.4 17.2 17.4H2.80002C1.47454 17.4 0.400024 16.3255 0.400024 15V6.59998C0.400024 5.27449 1.47454 4.19998 2.80002 4.19998H8.80002L8.80002 10.9029L7.24855 9.35145Z" fill="#52525B"/>
<path d="M8.80002 1.79998C8.80002 1.13723 9.33728 0.599976 10 0.599976C10.6628 0.599976 11.2 1.13723 11.2 1.79998L11.2 4.19998H8.80002L8.80002 1.79998Z" fill="#52525B"/>
</svg>
