<svg width="21" height="16" viewBox="0 0 21 16" fill="none" xmlns="http://www.w3.org/2000/svg">
<path d="M3.30002 0.800049C1.97454 0.800049 0.900024 1.87457 0.900024 3.20005V8.00005C0.900024 9.32553 1.97454 10.4 3.30002 10.4L3.30002 3.20005H15.3C15.3 1.87457 14.2255 0.800049 12.9 0.800049H3.30002Z" fill="#52525B"/>
<path fill-rule="evenodd" clip-rule="evenodd" d="M5.70002 8.00005C5.70002 6.67457 6.77454 5.60005 8.10002 5.60005H17.7C19.0255 5.60005 20.1 6.67457 20.1 8.00005V12.8C20.1 14.1255 19.0255 15.2 17.7 15.2H8.10002C6.77454 15.2 5.70002 14.1255 5.70002 12.8V8.00005ZM12.9 12.8C14.2255 12.8 15.3 11.7255 15.3 10.4C15.3 9.07457 14.2255 8.00005 12.9 8.00005C11.5745 8.00005 10.5 9.07457 10.5 10.4C10.5 11.7255 11.5745 12.8 12.9 12.8Z" fill="#52525B"/>
</svg>
