<svg width="39" height="39" viewBox="0 0 39 39" fill="none" xmlns="http://www.w3.org/2000/svg">
<rect width="39" height="39" rx="19.5" fill="#F4F4F5"/>
<path d="M19.5 9.5C16.0482 9.5 13.25 12.2982 13.25 15.75V18.25C11.8693 18.25 10.75 19.3693 10.75 20.75V27C10.75 28.3807 11.8693 29.5 13.25 29.5H25.75C27.1307 29.5 28.25 28.3807 28.25 27V20.75C28.25 19.3693 27.1307 18.25 25.75 18.25H15.75V15.75C15.75 13.6789 17.4289 12 19.5 12C21.2456 12 22.7156 13.1939 23.1319 14.8116C23.304 15.4801 23.9855 15.8826 24.6541 15.7105C25.3226 15.5385 25.7251 14.857 25.553 14.1884C24.8593 11.493 22.414 9.5 19.5 9.5Z" fill="#DC2626"/>
</svg>
