<svg width="38" height="38" viewBox="0 0 38 38" fill="none" xmlns="http://www.w3.org/2000/svg">
<rect width="38" height="38" rx="19" fill="#F4F4F5"/>
<path fill-rule="evenodd" clip-rule="evenodd" d="M12.7226 12.7222C13.1521 12.2926 13.8486 12.2926 14.2782 12.7222L19.0004 17.4444L23.7226 12.7222C24.1522 12.2926 24.8486 12.2926 25.2782 12.7222C25.7078 13.1518 25.7078 13.8483 25.2782 14.2778L20.556 19L25.2782 23.7222C25.7078 24.1518 25.7078 24.8483 25.2782 25.2778C24.8486 25.7074 24.1522 25.7074 23.7226 25.2778L19.0004 20.5557L14.2782 25.2778C13.8486 25.7074 13.1521 25.7074 12.7226 25.2778C12.293 24.8483 12.293 24.1518 12.7226 23.7222L17.4448 19L12.7226 14.2778C12.293 13.8483 12.293 13.1518 12.7226 12.7222Z" fill="#71717A"/>
</svg>
