<svg width="68" height="68" viewBox="0 0 68 68" fill="none" xmlns="http://www.w3.org/2000/svg">
<rect width="68" height="68" rx="10" fill="#F4F4F5"/>
<path fill-rule="evenodd" clip-rule="evenodd" d="M33.9997 23.5C34.644 23.5 35.1663 24.0223 35.1663 24.6667L35.1663 33.5168L36.6747 32.0084C37.1303 31.5528 37.869 31.5528 38.3246 32.0084C38.7802 32.464 38.7802 33.2027 38.3246 33.6583L34.8246 37.1583C34.369 37.6139 33.6303 37.6139 33.1747 37.1583L29.6747 33.6583C29.2191 33.2027 29.2191 32.464 29.6747 32.0084C30.1303 31.5528 30.869 31.5528 31.3246 32.0084L32.833 33.5168L32.833 24.6667C32.833 24.0223 33.3553 23.5 33.9997 23.5ZM22.333 30.5C22.333 28.567 23.9 27 25.833 27H29.333C29.9773 27 30.4997 27.5223 30.4997 28.1667C30.4997 28.811 29.9773 29.3333 29.333 29.3333H25.833C25.1887 29.3333 24.6663 29.8557 24.6663 30.5V41C24.6663 41.6443 25.1887 42.1667 25.833 42.1667H42.1663C42.8107 42.1667 43.333 41.6443 43.333 41V30.5C43.333 29.8557 42.8107 29.3333 42.1663 29.3333H38.6663C38.022 29.3333 37.4997 28.811 37.4997 28.1667C37.4997 27.5223 38.022 27 38.6663 27H42.1663C44.0993 27 45.6663 28.567 45.6663 30.5V41C45.6663 42.933 44.0993 44.5 42.1663 44.5H25.833C23.9 44.5 22.333 42.933 22.333 41V30.5Z" fill="#18181B"/>
</svg>
