<svg width="80" height="60" viewBox="0 0 80 60" fill="none" xmlns="http://www.w3.org/2000/svg">
<rect width="80" height="60" rx="5" fill="#F4F4F5"/>
<path fill-rule="evenodd" clip-rule="evenodd" d="M35.6004 12.2C34.3854 12.2 33.4004 13.1849 33.4004 14.4V27.5999C33.4004 28.815 34.3854 29.7999 35.6004 29.7999H44.4004C45.6154 29.7999 46.6004 28.815 46.6004 27.5999V18.1556C46.6004 17.5721 46.3686 17.0125 45.956 16.6L42.2004 12.8443C41.7878 12.4317 41.2282 12.2 40.6448 12.2H35.6004ZM41.1004 18.8C41.1004 18.1924 40.6079 17.7 40.0004 17.7C39.3929 17.7 38.9004 18.1924 38.9004 18.8V22.7443L37.4782 21.3221C37.0486 20.8926 36.3521 20.8926 35.9226 21.3221C35.493 21.7517 35.493 22.4482 35.9226 22.8778L39.2226 26.1778C39.6521 26.6073 40.3486 26.6073 40.7782 26.1778L44.0782 22.8778C44.5078 22.4482 44.5078 21.7517 44.0782 21.3221C43.6486 20.8926 42.9522 20.8926 42.5226 21.3221L41.1004 22.7443V18.8Z" fill="black"/>
<path d="M31.1785 47V39.7273H33.6359C34.2065 39.7273 34.6729 39.8303 35.0351 40.0362C35.3997 40.2398 35.6695 40.5156 35.8447 40.8636C36.0199 41.2116 36.1075 41.5999 36.1075 42.0284C36.1075 42.4569 36.0199 42.8464 35.8447 43.1967C35.6719 43.5471 35.4044 43.8265 35.0422 44.0348C34.68 44.2408 34.2159 44.3438 33.6501 44.3438H31.8888V43.5625H33.6217C34.0123 43.5625 34.326 43.495 34.5628 43.3601C34.7995 43.2251 34.9711 43.0429 35.0777 42.8132C35.1866 42.5812 35.241 42.3196 35.241 42.0284C35.241 41.7372 35.1866 41.4768 35.0777 41.2472C34.9711 41.0175 34.7983 40.8376 34.5592 40.7074C34.3201 40.5748 34.0029 40.5085 33.6075 40.5085H32.0592V47H31.1785ZM39.7705 47H37.5262V39.7273H39.8699C40.5754 39.7273 41.1791 39.8729 41.681 40.1641C42.1829 40.4529 42.5676 40.8684 42.8351 41.4105C43.1027 41.9503 43.2364 42.5966 43.2364 43.3494C43.2364 44.107 43.1015 44.7592 42.8316 45.3061C42.5617 45.8506 42.1687 46.2696 41.6526 46.5632C41.1365 46.8544 40.5091 47 39.7705 47ZM38.4069 46.2188H39.7137C40.315 46.2188 40.8134 46.1027 41.2087 45.8707C41.6041 45.6387 41.8988 45.3085 42.093 44.88C42.2871 44.4515 42.3841 43.9413 42.3841 43.3494C42.3841 42.7623 42.2883 42.2569 42.0965 41.8331C41.9047 41.407 41.6183 41.0803 41.2371 40.853C40.856 40.6233 40.3813 40.5085 39.8131 40.5085H38.4069V46.2188ZM44.7137 47V39.7273H49.0745V40.5085H45.5944V42.9659H48.7478V43.7472H45.5944V47H44.7137Z" fill="black"/>
</svg>
