<svg width="21" height="21" viewBox="0 0 21 21" fill="#F4F4F5" xmlns="http://www.w3.org/2000/svg">
    <path d="M2.10039 0.200012C1.43765 0.200012 0.900391 0.73727 0.900391 1.40001C0.900391 2.06275 1.43765 2.60001 2.10039 2.60001H3.56346L3.93013 4.0667C3.93398 4.08366 3.93819 4.10048 3.94275 4.11716L5.57142 10.6319L4.50033 11.703C2.98842 13.2149 4.05921 15.8 6.19739 15.8H16.5003C17.1631 15.8 17.7003 15.2628 17.7003 14.6C17.7003 13.9373 17.1631 13.4 16.5003 13.4L6.19739 13.4L7.39739 12.2H15.3004C15.7549 12.2 16.1704 11.9432 16.3737 11.5367L19.9737 4.33667C20.1597 3.96468 20.1398 3.52291 19.9212 3.16913C19.7025 2.81535 19.3163 2.60001 18.9004 2.60001H6.03732L5.66456 1.10897C5.53101 0.574769 5.05103 0.200012 4.50039 0.200012H2.10039Z" fill="#16A34A"/>
    <path d="M17.7004 18.8C17.7004 19.7941 16.8945 20.6 15.9004 20.6C14.9063 20.6 14.1004 19.7941 14.1004 18.8C14.1004 17.8059 14.9063 17 15.9004 17C16.8945 17 17.7004 17.8059 17.7004 18.8Z" fill="#16A34A"/>
    <path d="M6.30039 20.6C7.2945 20.6 8.10039 19.7941 8.10039 18.8C8.10039 17.8059 7.2945 17 6.30039 17C5.30628 17 4.50039 17.8059 4.50039 18.8C4.50039 19.7941 5.30628 20.6 6.30039 20.6Z" fill="#16A34A"/>
</svg>