<svg width="18" height="18" viewBox="0 0 18 18" fill="none" xmlns="http://www.w3.org/2000/svg">
<path fill-rule="evenodd" clip-rule="evenodd" d="M8.44451 0.832501C8.76091 0.54932 9.23964 0.549323 9.55604 0.832509C11.1784 2.28454 13.3187 3.16648 15.667 3.16648C15.8256 3.16648 15.9832 3.16246 16.1397 3.15452C16.5348 3.13448 16.8895 3.39499 16.9887 3.77797C17.214 4.64857 17.3337 5.56085 17.3337 6.49985C17.3337 11.5489 13.8804 15.7893 9.20804 16.9918C9.07179 17.0269 8.92887 17.0269 8.79261 16.9918C4.1203 15.7893 0.666992 11.5489 0.666992 6.49985C0.666992 5.56081 0.786663 4.6485 1.01202 3.77786C1.11115 3.39488 1.46588 3.13438 1.86098 3.15442C2.01746 3.16236 2.17506 3.16638 2.33366 3.16638C4.68192 3.16638 6.82221 2.28448 8.44451 0.832501ZM2.48487 4.83201C2.38561 5.37234 2.33366 5.92971 2.33366 6.49985C2.33366 10.6949 5.15236 14.2336 9.00033 15.3217C12.8483 14.2336 15.667 10.6949 15.667 6.49985C15.667 5.92975 15.615 5.37241 15.5158 4.83211C13.0606 4.79849 10.8014 3.94732 9.00026 2.53944C7.19917 3.94726 4.94002 4.79839 2.48487 4.83201ZM12.0896 6.74393C12.415 7.06936 12.415 7.597 12.0896 7.92244L8.75625 11.2558C8.43081 11.5812 7.90317 11.5812 7.57774 11.2558L5.91107 9.5891C5.58563 9.26367 5.58563 8.73603 5.91107 8.41059C6.23651 8.08515 6.76414 8.08515 7.08958 8.41059L8.16699 9.488L10.9111 6.74393C11.2365 6.41849 11.7641 6.41849 12.0896 6.74393Z" fill="#00319E"/>
</svg>
