<svg width="39" height="39" viewBox="0 0 39 39" fill="none" xmlns="http://www.w3.org/2000/svg">
<rect width="39" height="39" rx="19.5" fill="#F4F4F5"/>
<path d="M20.618 10.191C20.4063 9.7675 19.9735 9.5 19.5 9.5C19.0265 9.5 18.5937 9.7675 18.382 10.191L9.63198 27.691C9.41029 28.1344 9.47155 28.6668 9.78813 29.0483C10.1047 29.4297 10.6168 29.5881 11.0934 29.4519L17.3434 27.6662C17.88 27.5129 18.25 27.0224 18.25 26.4643V20.75C18.25 20.0596 18.8096 19.5 19.5 19.5C20.1904 19.5 20.75 20.0596 20.75 20.75V26.4643C20.75 27.0224 21.12 27.5129 21.6566 27.6662L27.9066 29.4519C28.3832 29.5881 28.8953 29.4297 29.2119 29.0483C29.5285 28.6668 29.5897 28.1344 29.368 27.691L20.618 10.191Z" fill="#16A34A"/>
</svg>
