<svg width="18" height="18" viewBox="0 0 18 18" fill="none" xmlns="http://www.w3.org/2000/svg">
<path fill-rule="evenodd" clip-rule="evenodd" d="M6.7037 2.74125C5.80385 3.07146 4.97707 3.595 4.28628 4.28579C3.23409 5.33798 2.56994 6.70567 2.38592 8.1665H5.68171C5.74605 6.35528 6.01844 4.70379 6.44194 3.43321C6.52202 3.19294 6.60916 2.96125 6.7037 2.74125ZM9.00033 0.666504C6.79019 0.666504 4.67057 1.54448 3.10777 3.10728C1.54497 4.67008 0.666992 6.7897 0.666992 8.99984C0.666992 11.21 1.54497 13.3296 3.10777 14.8924C4.67057 16.4552 6.79019 17.3332 9.00033 17.3332C11.2105 17.3332 13.3301 16.4552 14.8929 14.8924C16.4557 13.3296 17.3337 11.21 17.3337 8.99984C17.3337 6.7897 16.4557 4.67008 14.8929 3.10728C13.3301 1.54448 11.2105 0.666504 9.00033 0.666504ZM9.00033 2.33317C9.00033 2.33317 9.0052 2.33332 9.01308 2.33572C9.02236 2.33855 9.04071 2.34553 9.0682 2.36241C9.12582 2.39778 9.21246 2.46993 9.31896 2.60508C9.53581 2.88026 9.76754 3.33009 9.97756 3.96022C10.336 5.03551 10.5874 6.50231 10.6512 8.1665H7.3495C7.41322 6.50231 7.66469 5.03551 8.02309 3.96022C8.23311 3.33009 8.46484 2.88026 8.68169 2.60508C8.78819 2.46993 8.87483 2.39778 8.93245 2.36241C8.95994 2.34553 8.97829 2.33855 8.98758 2.33572C8.99598 2.33316 9.00033 2.33317 9.00033 2.33317ZM5.68171 9.83317H2.38592C2.56994 11.294 3.23409 12.6617 4.28628 13.7139C4.97707 14.4047 5.80385 14.9282 6.7037 15.2584C6.60916 15.0384 6.52202 14.8067 6.44194 14.5665C6.01844 13.2959 5.74605 11.6444 5.68171 9.83317ZM9.00014 15.6665C9.00014 15.6665 8.99556 15.6664 8.98758 15.664C8.97829 15.6611 8.95994 15.6541 8.93245 15.6373C8.87483 15.6019 8.78819 15.5297 8.68169 15.3946C8.46484 15.1194 8.23311 14.6696 8.02309 14.0395C7.66469 12.9642 7.41322 11.4974 7.3495 9.83317H10.6512C10.5874 11.4974 10.336 12.9642 9.97756 14.0395C9.76754 14.6696 9.53581 15.1194 9.31896 15.3946C9.21246 15.5297 9.12582 15.6019 9.0682 15.6373C9.04071 15.6541 9.02236 15.6611 9.01308 15.664C9.01231 15.6642 9.01157 15.6644 9.01087 15.6646C9.00388 15.6665 9.00014 15.6665 9.00014 15.6665C9.79132 15.6665 10.5682 15.5259 11.297 15.2584C12.1968 14.9282 13.0236 14.4047 13.7144 13.7139C14.7666 12.6617 15.4307 11.294 15.6147 9.83317H12.3189C12.2546 11.6444 11.9822 13.2959 11.5587 14.5665C11.4786 14.8067 11.3915 15.0384 11.297 15.2584M12.3189 8.1665C12.2546 6.35528 11.9822 4.70379 11.5587 3.43321C11.4786 3.19294 11.3915 2.96125 11.297 2.74125C12.1968 3.07146 13.0236 3.595 13.7144 4.28579C14.7666 5.33798 15.4307 6.70567 15.6147 8.1665H12.3189Z" fill="#00319E"/>
<path d="M9.01087 15.6646C9.00388 15.6665 9.00014 15.6665 9.00014 15.6665C9.79132 15.6665 10.5682 15.5259 11.297 15.2584L10.1485 15.4625L9.01087 15.6646Z" fill="#00319E"/>
</svg>
