<svg width="18" height="18" viewBox="0 0 18 18" fill="none" xmlns="http://www.w3.org/2000/svg">
<path fill-rule="evenodd" clip-rule="evenodd" d="M9.00033 2.33317C5.31843 2.33317 2.33366 5.31794 2.33366 8.99984C2.33366 12.6817 5.31843 15.6665 9.00033 15.6665C12.6822 15.6665 15.667 12.6817 15.667 8.99984C15.667 5.31794 12.6822 2.33317 9.00033 2.33317ZM0.666992 8.99984C0.666992 4.39746 4.39795 0.666504 9.00033 0.666504C13.6027 0.666504 17.3337 4.39746 17.3337 8.99984C17.3337 13.6022 13.6027 17.3332 9.00033 17.3332C4.39795 17.3332 0.666992 13.6022 0.666992 8.99984ZM9.00037 5.6665C7.77394 5.6665 6.89331 6.25503 6.61053 6.85509C6.41433 7.27141 5.91778 7.44985 5.50146 7.25366C5.08514 7.05746 4.90669 6.56091 5.10289 6.14459C5.7353 4.80266 7.3241 3.99984 9.00037 3.99984C10.0837 3.99984 11.0966 4.32813 11.8574 4.89874C12.6185 5.46954 13.167 6.32171 13.167 7.33317C13.167 9.05762 11.6387 10.2567 9.98589 10.5737C9.92537 10.5854 9.87716 10.6153 9.85086 10.6432C9.83897 10.6557 9.83481 10.6643 9.83385 10.6666C9.83379 10.6667 9.83375 10.6669 9.8337 10.667C9.83346 11.127 9.46046 11.4998 9.00037 11.4998C8.54013 11.4998 8.16704 11.1267 8.16704 10.6665C8.16704 9.71476 8.92507 9.08019 9.67189 8.93693C10.8993 8.70146 11.5004 7.94112 11.5004 7.33317C11.5004 6.96392 11.3028 6.56609 10.8574 6.23207C10.4118 5.89786 9.75797 5.6665 9.00037 5.6665ZM8.16699 13.1665C8.16699 12.7063 8.54009 12.3332 9.00033 12.3332H9.00866C9.4689 12.3332 9.84199 12.7063 9.84199 13.1665C9.84199 13.6267 9.4689 13.9998 9.00866 13.9998H9.00033C8.54009 13.9998 8.16699 13.6267 8.16699 13.1665Z" fill="#00319E"/>
</svg>
