<svg width="24" height="24" viewBox="0 0 24 24" fill="none" xmlns="http://www.w3.org/2000/svg">
<path fill-rule="evenodd" clip-rule="evenodd" d="M2.66732 3.83331C2.66732 1.90032 4.23432 0.333313 6.16732 0.333313H17.834C19.767 0.333313 21.334 1.90032 21.334 3.83331V21.3333L22.5006 21.3333C23.145 21.3333 23.6673 21.8556 23.6673 22.4999C23.6673 23.1443 23.145 23.6666 22.5007 23.6666H1.50064C0.856303 23.6666 0.333976 23.1443 0.333984 22.4999C0.333993 21.8556 0.856334 21.3333 1.50067 21.3333L2.66732 21.3333V3.83331ZM5.00065 21.3333H8.50065V16.6666C8.50065 15.378 9.54532 14.3333 10.834 14.3333H13.1673C14.456 14.3333 15.5007 15.378 15.5007 16.6666V21.3333H19.0007V3.83331C19.0007 3.18898 18.4783 2.66665 17.834 2.66665H6.16732C5.52299 2.66665 5.00065 3.18898 5.00065 3.83331V21.3333ZM13.1673 21.3333V16.6666H10.834V21.3333H13.1673ZM7.33398 6.16662C7.33398 5.52229 7.85632 4.99995 8.50065 4.99995H9.66732C10.3116 4.99995 10.834 5.52229 10.834 6.16662C10.834 6.81095 10.3116 7.33329 9.66732 7.33329H8.50065C7.85632 7.33329 7.33398 6.81095 7.33398 6.16662ZM13.1673 6.16662C13.1673 5.52229 13.6897 4.99995 14.334 4.99995H15.5007C16.145 4.99995 16.6673 5.52229 16.6673 6.16662C16.6673 6.81095 16.145 7.33329 15.5007 7.33329H14.334C13.6897 7.33329 13.1673 6.81095 13.1673 6.16662ZM7.33398 10.8333C7.33398 10.189 7.85632 9.66662 8.50065 9.66662H9.66732C10.3116 9.66662 10.834 10.189 10.834 10.8333C10.834 11.4776 10.3116 12 9.66732 12H8.50065C7.85632 12 7.33398 11.4776 7.33398 10.8333ZM13.1673 10.8333C13.1673 10.189 13.6897 9.66662 14.334 9.66662H15.5007C16.145 9.66662 16.6673 10.189 16.6673 10.8333C16.6673 11.4776 16.145 12 15.5007 12H14.334C13.6897 12 13.1673 11.4776 13.1673 10.8333Z" fill="#18181B"/>
</svg>
