<svg width="22" height="22" viewBox="0 0 22 22" fill="none" xmlns="http://www.w3.org/2000/svg">
<path fill-rule="evenodd" clip-rule="evenodd" d="M1.66667 0.5C2.311 0.5 2.83333 1.02233 2.83333 1.66667V4.40015C4.75761 2.02187 7.7003 0.5 11 0.5C16.3554 0.5 20.7728 4.50824 21.4188 9.68897C21.4986 10.3284 21.0449 10.9113 20.4055 10.991C19.7661 11.0708 19.1832 10.6171 19.1034 9.9777C18.6012 5.95036 15.1637 2.83333 11 2.83333C8.22603 2.83333 5.77331 4.21661 4.29683 6.33333H7.5C8.14433 6.33333 8.66667 6.85567 8.66667 7.5C8.66667 8.14433 8.14433 8.66667 7.5 8.66667H1.66667C1.02233 8.66667 0.5 8.14433 0.5 7.5V1.66667C0.5 1.02233 1.02233 0.5 1.66667 0.5ZM1.59451 11.009C2.23389 10.9292 2.81685 11.3829 2.89658 12.0223C3.39878 16.0496 6.83627 19.1667 11 19.1667C13.774 19.1667 16.2267 17.7834 17.7032 15.6667H14.5C13.8557 15.6667 13.3333 15.1443 13.3333 14.5C13.3333 13.8557 13.8557 13.3333 14.5 13.3333H20.3333C20.9777 13.3333 21.5 13.8557 21.5 14.5V20.3333C21.5 20.9777 20.9777 21.5 20.3333 21.5C19.689 21.5 19.1667 20.9777 19.1667 20.3333V17.5999C17.2424 19.9781 14.2997 21.5 11 21.5C5.64462 21.5 1.2272 17.4918 0.581176 12.311C0.501446 11.6716 0.955133 11.0887 1.59451 11.009Z" fill="#18181B"/>
</svg>
