<svg width="20" height="20" viewBox="0 0 20 20" fill="none" xmlns="http://www.w3.org/2000/svg">
<path d="M3.0002 0.199951C1.4538 0.199951 0.200195 1.45355 0.200195 2.99995V5.79995C0.200195 7.34635 1.4538 8.59995 3.0002 8.59995H5.8002C7.34659 8.59995 8.60019 7.34635 8.60019 5.79995V2.99995C8.60019 1.45355 7.34659 0.199951 5.8002 0.199951H3.0002Z" fill="black"/>
<path d="M3.0002 11.4C1.4538 11.4 0.200195 12.6536 0.200195 14.2V17C0.200195 18.5463 1.4538 19.8 3.0002 19.8H5.8002C7.34659 19.8 8.60019 18.5463 8.60019 17V14.2C8.60019 12.6536 7.34659 11.4 5.8002 11.4H3.0002Z" fill="black"/>
<path d="M11.4002 2.99995C11.4002 1.45355 12.6538 0.199951 14.2002 0.199951H17.0002C18.5466 0.199951 19.8002 1.45355 19.8002 2.99995V5.79995C19.8002 7.34635 18.5466 8.59995 17.0002 8.59995H14.2002C12.6538 8.59995 11.4002 7.34635 11.4002 5.79995V2.99995Z" fill="black"/>
<path d="M11.4002 14.2C11.4002 12.6536 12.6538 11.4 14.2002 11.4H17.0002C18.5466 11.4 19.8002 12.6536 19.8002 14.2V17C19.8002 18.5463 18.5466 19.8 17.0002 19.8H14.2002C12.6538 19.8 11.4002 18.5463 11.4002 17V14.2Z" fill="black"/>
</svg>
