<svg width="17" height="17" viewBox="0 0 17 17" fill="none" xmlns="http://www.w3.org/2000/svg">
<path fill-rule="evenodd" clip-rule="evenodd" d="M6.79442 0.44918C7.03049 0.685244 7.10289 1.03941 6.9784 1.34917C6.67029 2.11587 6.50033 2.95386 6.50033 3.83359C6.50033 7.51549 9.48509 10.5003 13.167 10.5003C14.0467 10.5003 14.8847 10.3303 15.6514 10.0222C15.9612 9.8977 16.3153 9.9701 16.5514 10.2062C16.7875 10.4422 16.8599 10.7964 16.7354 11.1062C15.5046 14.1688 12.5063 16.3336 9.00033 16.3336C4.39795 16.3336 0.666992 12.6026 0.666992 8.00026C0.666992 4.49433 2.83175 1.49601 5.89443 0.265205C6.2042 0.140719 6.55836 0.213116 6.79442 0.44918ZM4.90497 2.73919C3.33949 3.95962 2.33366 5.86306 2.33366 8.00026C2.33366 11.6822 5.31843 14.6669 9.00033 14.6669C11.1375 14.6669 13.041 13.6611 14.2614 12.0956C13.9031 12.1427 13.5377 12.1669 13.167 12.1669C8.56462 12.1669 4.83366 8.43597 4.83366 3.83359C4.83366 3.46284 4.85792 3.09752 4.90497 2.73919Z" fill="#00319E"/>
</svg>
