<svg width="16" height="18" viewBox="0 0 16 18" fill="none" xmlns="http://www.w3.org/2000/svg">
<path fill-rule="evenodd" clip-rule="evenodd" d="M5.51542 2.8875C5.65416 1.6381 6.71363 0.666504 8.00002 0.666504C9.28643 0.666504 10.3459 1.6381 10.4846 2.8875C12.4628 3.82016 13.8334 5.83238 13.8334 8.16651V10.7985C13.8334 11.0266 13.9239 11.2452 14.0852 11.4065L15.2559 12.5773C15.4943 12.8156 15.5656 13.174 15.4366 13.4854C15.3076 13.7968 15.0037 13.9998 14.6667 13.9998L11.3334 13.9998C11.3334 15.8408 9.84097 17.3332 8.00002 17.3332C6.15908 17.3332 4.66669 15.8408 4.66669 13.9998L1.33336 13.9998C0.996306 13.9998 0.692442 13.7968 0.563458 13.4854C0.434474 13.174 0.50577 12.8156 0.744102 12.5773L1.91488 11.4065C2.07611 11.2452 2.16669 11.0266 2.16669 10.7985V8.16651C2.16669 5.83238 3.5372 3.82016 5.51542 2.8875ZM6.33336 13.9998C6.33336 14.9203 7.07955 15.6665 8.00002 15.6665C8.9205 15.6665 9.66669 14.9203 9.66669 13.9998H6.33336ZM8.00002 2.33317C7.53979 2.33317 7.16669 2.70627 7.16669 3.1665V3.45102C7.16669 3.8042 6.94406 4.11902 6.61106 4.23672C4.99162 4.80911 3.83336 6.35362 3.83336 8.16651V10.7985C3.83336 11.3563 3.64894 11.895 3.31386 12.3332H12.6862C12.3511 11.895 12.1667 11.3563 12.1667 10.7985V8.16651C12.1667 6.35362 11.0084 4.80911 9.38899 4.23672C9.05599 4.11902 8.83336 3.8042 8.83336 3.45102V3.1665C8.83336 2.70627 8.46026 2.33317 8.00002 2.33317Z" fill="#00319E"/>
</svg>
