<svg width="20" height="20" viewBox="0 0 20 20" fill="none" xmlns="http://www.w3.org/2000/svg">
<path d="M11.0737 1.06334C10.8704 0.656797 10.4549 0.399994 10.0004 0.399994C9.54588 0.399994 9.13036 0.656797 8.92709 1.06334L0.527091 17.8633C0.314271 18.289 0.373078 18.8002 0.676993 19.1664C0.980907 19.5326 1.4725 19.6846 1.93007 19.5538L7.93006 17.8395C8.44522 17.6924 8.80039 17.2215 8.80039 16.6857V11.2C8.80039 10.5373 9.33765 10 10.0004 10C10.6631 10 11.2004 10.5373 11.2004 11.2V16.6857C11.2004 17.2215 11.5556 17.6923 12.0707 17.8395L18.0707 19.5538C18.5283 19.6846 19.0199 19.5326 19.3238 19.1664C19.6277 18.8002 19.6865 18.289 19.4737 17.8633L11.0737 1.06334Z" fill="#52525B"/>
</svg>
