<svg width="18" height="20" viewBox="0 0 18 20" fill="none" xmlns="http://www.w3.org/2000/svg">
<path fill-rule="evenodd" clip-rule="evenodd" d="M1.79961 0.399994C2.46235 0.399994 2.99961 0.937252 2.99961 1.59999V4.1215C4.52372 2.56586 6.64823 1.59999 8.99961 1.59999C12.6589 1.59999 15.7688 3.93918 16.9213 7.2001C17.1422 7.82496 16.8147 8.51054 16.1898 8.7314C15.565 8.95226 14.8794 8.62475 14.6585 7.99989C13.8343 5.66789 11.6102 3.99999 8.99961 3.99999C7.03769 3.99999 5.29405 4.94202 4.19883 6.39999H7.79961C8.46235 6.39999 8.99961 6.93725 8.99961 7.59999C8.99961 8.26273 8.46235 8.79999 7.79961 8.79999H1.79961C1.13687 8.79999 0.599609 8.26273 0.599609 7.59999V1.59999C0.599609 0.937252 1.13687 0.399994 1.79961 0.399994ZM1.80941 11.2686C2.43427 11.0477 3.11986 11.3752 3.34071 12.0001C4.16496 14.3321 6.38905 16 8.99961 16C10.9615 16 12.7052 15.058 13.8004 13.6L10.1996 13.6C9.53687 13.6 8.99961 13.0627 8.99961 12.4C8.99961 11.7373 9.53687 11.2 10.1996 11.2H16.1996C16.5179 11.2 16.8231 11.3264 17.0481 11.5515C17.2732 11.7765 17.3996 12.0817 17.3996 12.4V18.4C17.3996 19.0627 16.8624 19.6 16.1996 19.6C15.5369 19.6 14.9996 19.0627 14.9996 18.4V15.8785C13.4755 17.4341 11.351 18.4 8.99961 18.4C5.34032 18.4 2.23047 16.0608 1.0779 12.7999C0.857039 12.175 1.18455 11.4894 1.80941 11.2686Z" fill="#52525B"/>
</svg>
