<svg width="18" height="18" viewBox="0 0 18 18" fill="none" xmlns="http://www.w3.org/2000/svg">
<path fill-rule="evenodd" clip-rule="evenodd" d="M0.666992 3.1665C0.666992 1.78579 1.78628 0.666504 3.16699 0.666504H5.89969C6.61708 0.666504 7.25398 1.12555 7.48083 1.80613L8.72901 5.55066C8.99129 6.33751 8.63508 7.19749 7.89323 7.56842L6.76277 8.13364C7.50162 9.42416 8.576 10.4985 9.86652 11.2374L10.4317 10.1069C10.8027 9.36508 11.6627 9.00887 12.4495 9.27115L16.194 10.5193C16.8746 10.7462 17.3337 11.3831 17.3337 12.1005V14.8332C17.3337 16.2139 16.2144 17.3332 14.8337 17.3332H14.0003C6.63653 17.3332 0.666992 11.3636 0.666992 3.99984V3.1665ZM3.16699 2.33317C2.70675 2.33317 2.33366 2.70627 2.33366 3.1665V3.99984C2.33366 10.4432 7.557 15.6665 14.0003 15.6665H14.8337C15.2939 15.6665 15.667 15.2934 15.667 14.8332V12.1005L11.9225 10.8523L10.9819 12.7333C10.7819 13.1334 10.3018 13.3042 9.89406 13.1204C7.67152 12.1183 5.88188 10.3286 4.87981 8.1061C4.69598 7.69838 4.86679 7.21825 5.26682 7.01823L7.14787 6.0777L5.89969 2.33317H3.16699Z" fill="#00319E"/>
</svg>
