<svg width="39" height="39" viewBox="0 0 39 39" fill="none" xmlns="http://www.w3.org/2000/svg">
<rect width="39" height="39" rx="19.5" fill="#F4F4F5"/>
<path fill-rule="evenodd" clip-rule="evenodd" d="M17.3216 10.8735C18.2773 9.17434 20.7237 9.17434 21.6794 10.8735L28.6548 23.2741C29.5922 24.9407 28.388 26.9998 26.4759 26.9998H12.5251C10.6131 26.9998 9.40877 24.9407 10.3462 23.2741L17.3216 10.8735ZM20.7504 23.2499C20.7504 23.9403 20.1908 24.4999 19.5004 24.4999C18.81 24.4999 18.2504 23.9403 18.2504 23.2499C18.2504 22.5596 18.81 21.9999 19.5004 21.9999C20.1908 21.9999 20.7504 22.5596 20.7504 23.2499ZM19.5004 13.2499C18.81 13.2499 18.2504 13.8096 18.2504 14.4999V18.2499C18.2504 18.9403 18.81 19.4999 19.5004 19.4999C20.1908 19.4999 20.7504 18.9403 20.7504 18.2499V14.4999C20.7504 13.8096 20.1908 13.2499 19.5004 13.2499Z" fill="#F59E0B"/>
</svg>
